<?xml version="1.0" encoding="utf-8"?>
<!-- Generator: Adobe Illustrator 25.2.1, SVG Export Plug-In . SVG Version: 6.00 Build 0)  -->
<svg version="1.1" id="Layer_1" xmlns="http://www.w3.org/2000/svg" xmlns:xlink="http://www.w3.org/1999/xlink" x="0px" y="0px"
	 viewBox="0 0 864 700" style="enable-background:new 0 0 864 700;" xml:space="preserve">
<g>
	<g>
		<path d="M405.75,494.34c0.73,3.98,1.58,7.37,1.95,10.81c0.92,8.53-1.35,12.56-9.37,16.16c-12.13,5.45-24.99,6.73-38.11,6.16
			c-2.33-0.1-4.67-0.28-6.96-0.66c-15.13-2.49-20.15-7.31-23.71-22.23c-3.32-13.89-4.27-27.95-3.55-42.17
			c0.1-1.91,0.08-4.16-0.8-5.74c-8.91-16.12-12.44-33.6-13.49-51.75c-0.04-0.61-0.19-1.22-0.42-2.61c-4.03,3.21-7.59,6.1-11.21,8.9
			c-10.53,8.16-24.62,5.02-30.63-7.02c-5.21-10.44-3.28-20.54,2.92-29.81c8.52-12.73,20.82-21.41,33.36-29.71
			c2.89-1.91,5.89-3.64,9.24-5.7c-60.99-32.39-81.17-82.55-66.21-148.43c-26.3-12.92-39.68-33.79-35.78-63.28
			c3.05-23.08,16.79-39.28,38.88-46.49c25.61-8.35,47.51-0.9,65.2,19.51c5.88-3.1,11.6-6.48,17.6-9.21
			c55.6-25.32,110.41-23.57,164.23,5.34c3.58,1.93,5.35,1.79,8.29-1.12c17.22-17.05,37.89-22.12,60.66-14.39
			c22.24,7.54,35.7,23.87,38.69,47.2c3.18,24.75-6.45,44.35-27.65,57.75c-3.83,2.42-4.86,4.13-3.77,8.83
			c8.21,35.39,5.65,69.53-13.62,101.23c-9.79,16.11-23.35,28.54-39.4,38.3c-1.84,1.12-3.68,2.25-6.17,3.77
			c1.54,1.23,2.77,2.21,3.99,3.19c11.96,9.67,23.48,19.77,31.23,33.35c4.48,7.84,6.01,16.23,3.4,25.04
			c-3.12,10.54-14.68,17.3-23.74,13.23c-4.38-1.97-7.87-5.93-12.16-9.3c-0.59,5.07-1.15,10.12-1.79,15.17
			c-1.53,12.16-5.01,23.74-10.31,34.81c-0.93,1.95-1.18,4.46-1.02,6.66c1.24,16.59,0,32.91-3.99,49.09
			c-2.43,9.84-8.34,15.59-18.11,17.68c-15.7,3.37-31.17,2.54-46.28-2.84c-12.56-4.47-15.43-10.15-12.21-23.07
			c0.52-2.08,1.16-4.13,1.88-6.67C419.69,494.34,412.98,494.34,405.75,494.34z M411.85,352.2c32.4-0.06,60.36-3.65,86.87-14.89
			c32.39-13.74,56.79-35.7,67.07-70.18c13.37-44.87,4.65-86.54-23.84-123.01c-35.9-45.96-84.54-65.45-142.27-61.98
			c-44.02,2.64-81.53,20.25-111.09,53.15c-27.93,31.09-40.62,67.78-35.69,109.56c4.36,37.01,24.97,63.57,56.66,81.85
			C342.35,345.61,378.38,351.7,411.85,352.2z M325.93,344.1c-0.26,0.38-0.56,0.62-0.62,0.92c-5.92,28.3-8.43,56.71-1.61,85.22
			c7.66,32.03,27.47,51.15,59.89,54.31c20.93,2.04,42.36,1.88,63.32-0.03c29.91-2.72,49.11-20.22,57.9-48.99
			c4.89-15.99,6.26-32.42,5.2-48.94c-0.91-14.21-3.02-28.35-4.63-42.82C444.79,366.22,385.51,365.09,325.93,344.1z"/>
		<path d="M371.15,217.21c-2.62,25.85-11.19,47.16-29.48,63.82c-7.87,7.17-17.32,11.07-28.03,11.73
			c-23.36,1.45-38.61-17.19-32.23-39.66c5.05-17.78,16.36-31.43,29.78-43.5c9.72-8.74,20.28-16.26,33.22-19.6
			c10.97-2.83,19.15,1.1,23.07,11.77C369.46,207.15,370.19,213,371.15,217.21z M349.7,211.07c0-4.72-3.46-8.19-8.18-8.2
			c-4.73-0.01-8.23,3.44-8.25,8.13c-0.02,4.55,3.66,8.28,8.19,8.28C346.07,219.28,349.7,215.67,349.7,211.07z"/>
		<path d="M458.07,218.04c1.91-6.46,3.06-13.28,5.92-19.29c4.1-8.61,11.12-11.27,20.44-9.07c11.64,2.74,21.39,9.11,30.41,16.61
			c14.14,11.76,26.13,25.32,32.43,42.93c4.1,11.48,4.7,22.92-4.11,32.91c-9.32,10.56-21.31,12.28-34.27,9.57
			c-11.17-2.34-19.98-8.76-27.42-17.23C468.78,260.03,459.39,236.41,458.07,218.04z M496.7,211.01c0.03-4.51-3.69-8.17-8.3-8.15
			c-4.63,0.02-8.25,3.62-8.24,8.2c0.02,4.54,3.76,8.26,8.27,8.23C492.91,219.26,496.67,215.49,496.7,211.01z"/>
		<path d="M416.21,275.41c-11.14,10.03-26.49,9.7-34.4-0.41c-1.87-2.4-2.66-4.34,1.5-5.51c4.41,7.45,11.31,10.55,19.66,8.44
			c3.51-0.89,7.12-3.66,9.41-6.58c3.1-3.95,1.38-7.99-3.18-10.26c-1.04-0.52-2.38-0.96-2.92-1.84c-2.21-3.58-5.18-7.18-5.68-11.05
			c-0.19-1.46,5.36-4.29,8.66-5.43c6.2-2.14,12.45-1.34,18.45,1.5c2.6,1.23,3.73,3.15,2.42,5.55c-1.94,3.54-3.83,7.49-6.81,10
			c-5.51,4.64-5.86,11.2,0.06,15.51c8.29,6.04,19.01,3.65,26.06-5.97c1.06,0.71,2.12,1.42,3.16,2.11
			C446.03,284.81,429.11,286.6,416.21,275.41z"/>
		<path d="M416.28,393.35c0.68-2.41,1.1-4.19,1.69-5.92c3.05-9.01,8.21-16.2,18.11-18.09c11.25-2.15,21.36,0.54,28.66,9.8
			c11.53,14.61,11.12,30.44,3.24,46.43c-7.27,14.76-18.44,26.38-31.21,36.49c-1.15,0.91-3.12,1.51-4.53,1.25
			c-19.44-3.61-37.62-10.02-51.91-24.54c-7.12-7.24-11.45-15.9-12.62-26c-1.42-12.25,4.62-23.6,14.98-28.49
			c10.58-5,22.64-2.39,31.42,6.79C414.66,391.65,415.22,392.24,416.28,393.35z"/>
	</g>
	<g>
		<path d="M246.65,550.35c0.83,0,1.12,0.35,1.12,0.83s-1.89,1.83-3.36,5.43c-1.24,3.01-1.89,4.66-3.66,12.63
			c-3.07,13.98-7.67,18.47-14.46,18.47c-8.2,0-14.04-6.49-14.04-10.62c0-4.07,6.9-7.73,10.33-7.73c1.06,0,1.48,0.41,1.48,0.94
			c0,0.59-0.24,0.83-1.06,1.36c-2.01,1.36-4.07,3.89-4.07,6.67c0,3.01,2.36,5.49,5.49,5.49c3.6,0,6.73-4.66,9.44-15.7
			c2.12-8.79,3.01-12.04,5.49-14.81C241.22,551.36,245.89,550.35,246.65,550.35z M242.7,571.54c0-0.53,0.41-1,0.88-1
			c6.31,0,12.86-5.55,12.86-13.33c0-5.72-4.31-9.38-11.8-9.38c-10.98,0-17.29,4.9-17.29,12.04c0,3.6,2.95,4.72,2.95,5.49
			c0,0.83-0.47,1.12-1.24,1.12c-3.13,0-9.38-2.89-9.38-7.55c0-8.79,12.45-14.51,25.08-14.51c12.04,0,19.65,5.9,19.65,13.39
			c0,9.74-11.03,15.22-17.41,15.22C243.76,573.01,242.7,572.18,242.7,571.54z"/>
		<path d="M278.92,587.7c-3.25,0-5.78-1.71-6.2-5.02c0,0-3.89,5.02-8.38,5.02c-3.19,0-5.9-2.54-5.9-6.14
			c0-8.5,7.08-17.52,13.57-17.52c4.78,0,6.43,2.77,6.43,2.77c1.77,0,4.19,0.71,4.19,2.77c0,1.77-3.42,8.5-3.42,12.51
			c0,0.94,0.65,1.65,1.65,1.65c3.19,0,6.31-5.07,6.31-5.07s0.47-0.83,1.18-0.83c0.65,0,1.24,0.53,1.24,1.18
			c0,0.53-0.53,1.42-0.53,1.42S284.77,587.7,278.92,587.7z M273.26,567.47c-3.42,0-7.61,8.14-7.61,13.1c0,1.71,0.47,2.66,1.71,2.66
			c2.83,0,8.02-8.67,8.02-13.22C275.38,568.29,274.44,567.47,273.26,567.47z"/>
		<path d="M309.72,583.75c3.19,0,6.31-5.07,6.31-5.07s0.47-0.83,1.18-0.83c0.65,0,1.24,0.53,1.24,1.18c0,0.53-0.53,1.42-0.53,1.42
			s-4.31,7.26-10.15,7.26c-4.48,0-7.49-2.66-7.49-5.96c0-4.84,3.01-9.09,3.01-12.63c0-0.53-0.53-0.94-1.18-0.94
			c-3.54,0-9.09,7.02-9.09,18.35c0,1-0.47,1.18-1.3,1.18c-3.13,0-5.55-1.36-5.55-3.25c0-6.55,3.42-15.34,4.78-18.71
			c0.29-0.71,0.89-1.12,1.59-1.12c0.88,0,2.3,0.35,4.13,3.19c0,0,4.25-3.78,9.26-3.78c2.6,0,5.02,2.77,5.02,5.07
			c0,3.54-3.13,8.14-3.13,12.39C307.83,582.87,308.54,583.75,309.72,583.75z"/>
		<path d="M332.08,581.92c0,0-4.78,5.78-9.68,5.78c-3.36,0-6.73-2.95-6.73-7.26c0-9.68,8.61-16.4,14.04-16.4
			c2.3,0,3.72,0.94,3.72,0.94c2.71-9.68,7.61-18.94,13.04-18.94c2.42,0,5.13,2.77,5.13,5.49c0,5.72-12.98,23.6-12.98,23.6
			c-0.18,1-0.24,2.01-0.24,2.95c0,3.25,1,5.67,3.19,5.67c3.19,0,6.25-5.07,6.25-5.07s0.47-0.83,1.18-0.83
			c0.65,0,1.24,0.53,1.24,1.18c0,0.53-0.53,1.42-0.53,1.42s-4.31,7.26-10.15,7.26C335.15,587.7,332.32,583.99,332.08,581.92z
			 M331.02,567.35c-3.78,0-8.02,8.14-8.02,12.98c0,2.12,0.83,3.36,2.18,3.36c2.48,0,6.49-4.9,6.49-4.9c0.06-3.48,0.47-6.9,1-10.5
			C332.67,568.29,332.02,567.35,331.02,567.35z M348.37,550.59c0-0.59-0.29-1-0.83-1c-2.01,0-6.49,10.86-8.56,21.18
			C338.99,570.77,348.37,555.72,348.37,550.59z"/>
		<path d="M367.6,587.7c-3.25,0-5.78-1.71-6.2-5.02c0,0-3.89,5.02-8.38,5.02c-3.19,0-5.9-2.54-5.9-6.14
			c0-8.5,7.08-17.52,13.57-17.52c4.78,0,6.43,2.77,6.43,2.77c1.77,0,4.19,0.71,4.19,2.77c0,1.77-3.42,8.5-3.42,12.51
			c0,0.94,0.65,1.65,1.65,1.65c1.18,0,2.89-1.95,2.89-1.95c0.3-0.35,0.71-0.83,1.24-0.83c0.65,0,1.3,0.65,1.3,1.3
			c0,0.53-0.65,1.3-0.65,1.3S371.08,587.7,367.6,587.7z M361.94,567.47c-3.42,0-7.61,8.14-7.61,13.1c0,1.71,0.47,2.66,1.71,2.66
			c2.83,0,8.02-8.67,8.02-13.22C364.06,568.29,363.12,567.47,361.94,567.47z"/>
		<path d="M396.39,574.55c0-2.18,0.35-4.43,0.94-6.61c-7.02-1.71-11.27-5.72-11.27-9.5c0-6.61,9.26-11.57,12.57-11.57
			c0.77,0,1,0.29,1,0.65c0,0.53-0.41,0.77-1.12,1.3c-1.65,1.24-4.6,3.42-4.6,8.26c0,2.6,1.06,5.43,4.72,6.96
			c4.48-10.68,14.63-19.65,22.25-19.65c4.78,0,8.44,4.9,8.44,8.26c0,6.2-9.26,15.81-23.84,16.11c-0.47,2.01-0.71,4.01-0.71,5.96
			c0,7.49,3.13,10.56,8.79,10.56c4.19,0,8.73-2.95,11.39-6.61c0,0,0.47-0.83,1.18-0.83c0.71,0,1.24,0.53,1.24,1.18
			c0,0.53-0.53,1.42-0.53,1.42c-2.66,4.01-8.03,8.38-15.22,8.38C404.3,588.82,396.39,584.4,396.39,574.55z M406.54,565.22
			c10.74-0.35,17.29-8.97,17.29-14.57c0-1.3-0.83-2.24-2.3-2.24C416.39,548.41,409.67,556.25,406.54,565.22z"/>
		<path d="M441.82,583.75c3.19,0,6.31-5.07,6.31-5.07s0.47-0.83,1.18-0.83c0.65,0,1.24,0.53,1.24,1.18c0,0.53-0.53,1.42-0.53,1.42
			s-4.31,7.26-10.15,7.26c-4.48,0-7.49-2.66-7.49-5.9c0-5.19,3.72-9.26,3.72-11.09c0-1.18-3.54-1.42-3.54-1.42
			c-2.24,5.72-4.48,9.32-5.72,11.15c-0.18,0.24-0.59,0.89-1.3,0.89c-0.59,0-1.24-0.65-1.24-1.24c0-0.53,0.47-1.12,0.65-1.42
			c1.06-1.53,3.42-4.96,5.13-10.5c0,0-1.95-1.42-1.95-4.37c0-2.42,2.01-4.37,3.42-4.37c1.65,0,3.66,1.89,3.66,3.07
			c0,1.53-0.77,2.48-0.77,3.42c0,0.83,1.06,1.24,2.48,1.24c2.66,0,3.48-0.77,4.9-0.77s2.42,1.3,2.42,2.83
			c0,2.66-4.37,7.67-4.37,12.45C439.87,583.04,440.64,583.75,441.82,583.75z"/>
		<path d="M457.93,587.7c-5.96,0-10.27-3.66-10.27-8.67c0-9.03,7.49-14.99,12.63-14.99c3.6,0,6.49,3.07,6.49,6.2
			c0,2.83-2.18,8.73-9.62,8.73c-0.65,0-2.24-0.35-2.24-0.35c0,3.48,2.36,5.49,5.19,5.49c5.61,0,9.09-5.43,9.09-5.43
			s0.47-0.83,1.18-0.83c0.65,0,1.24,0.53,1.24,1.18c0,0.53-0.53,1.42-0.53,1.42S466.9,587.7,457.93,587.7z M462.88,568.23
			c0-0.77-0.41-1.18-1.06-1.18c-3.25,0-6.61,6.08-6.61,9.15C459.52,576.2,462.88,570.71,462.88,568.23z"/>
		<path d="M488.96,587.7c-3.25,0-5.78-1.71-6.2-5.02c0,0-3.89,5.02-8.38,5.02c-3.19,0-5.9-2.54-5.9-6.14
			c0-8.5,7.08-17.52,13.57-17.52c4.78,0,6.43,2.77,6.43,2.77c1.77,0,4.19,0.71,4.19,2.77c0,1.77-3.42,8.5-3.42,12.51
			c0,0.94,0.65,1.65,1.65,1.65c3.19,0,6.31-5.07,6.31-5.07s0.47-0.83,1.18-0.83c0.65,0,1.24,0.53,1.24,1.18
			c0,0.53-0.53,1.42-0.53,1.42S494.8,587.7,488.96,587.7z M483.3,567.47c-3.42,0-7.61,8.14-7.61,13.1c0,1.71,0.47,2.66,1.71,2.66
			c2.83,0,8.02-8.67,8.02-13.22C485.42,568.29,484.48,567.47,483.3,567.47z"/>
		<path d="M513.27,578.68c0,0,0.47-0.83,1.18-0.83c0.65,0,1.24,0.53,1.24,1.18c0,0.53-0.53,1.42-0.53,1.42s-4.31,7.26-10.15,7.26
			c-3.72,0-8.38-2.89-8.38-7.02c0-3.25,1.71-9.97,3.78-16.11h-1.59c-0.29,0-0.47-0.18-0.47-0.53c0-0.59,0.94-2.07,1.77-2.07h1.18
			c1.18-3.19,2.36-6.02,3.42-7.91c0.29-0.65,0.88-1.12,1.59-1.12c1.77,0,4.6,2.48,4.6,3.54c0,0.53-0.88,2.6-1.95,5.49h3.95
			c0.29,0,0.47,0.18,0.47,0.53c0,0.59-1,2.07-1.77,2.07h-3.66c-1.95,5.25-4.13,11.86-4.13,16.11c0,1.77,1.42,3.07,3.13,3.07
			C510.14,583.75,513.27,578.68,513.27,578.68z"/>
		<path d="M521.88,583.75c3.19,0,6.31-5.07,6.31-5.07s0.47-0.83,1.18-0.83c0.65,0,1.24,0.53,1.24,1.18c0,0.53-0.53,1.42-0.53,1.42
			s-4.31,7.26-10.15,7.26c-4.48,0-7.49-2.66-7.49-6.49c0-4.25,3.19-12.75,4.6-16.05c0.29-0.65,0.88-1.12,1.59-1.12
			c1.77,0,4.66,2.48,4.66,3.36c0,3.54-3.3,8.38-3.3,14.1C519.99,582.87,520.7,583.75,521.88,583.75z M523.71,559.2
			c-1.71,0-3.19-1.24-3.19-3.36c0-3.01,2.36-5.96,4.96-5.96c1.71,0,3.01,1.3,3.01,3.25C528.49,556.25,526.25,559.2,523.71,559.2z"/>
		<path d="M546.07,585.52c-0.71,0-1.48-0.06-2.3-0.18c-1.89,1.48-4.19,2.36-6.73,2.36c-4.9,0-9.21-3.72-9.21-8.32
			c0-9.91,7.55-15.34,13.69-15.34c4.9,0,8.67,3.3,8.67,8.73c0,3.13-1.36,6.84-3.66,9.8c0.29,0.06,0.59,0.12,0.94,0.12
			c4.01,0,6.96-4.01,6.96-4.01s0.47-0.83,1.18-0.83c0.65,0,1.24,0.53,1.24,1.18c0,0.53-0.53,1.42-0.53,1.42
			S552.97,585.52,546.07,585.52z M537.63,584.87c0.65,0,1.24-0.24,1.83-0.71c-0.65-0.41-1-0.88-1-1.42c0-1.3,2.01-2.89,2.95-2.89
			c0.24,0,0.47,0.06,0.65,0.12c1.18-2.95,1.83-6.61,1.83-9.21c0-2.66-0.94-3.72-2.3-3.72c-2.66,0-6.79,5.84-6.79,13.81
			C534.8,583.22,535.86,584.87,537.63,584.87z"/>
		<path d="M576.99,583.75c3.19,0,6.31-5.07,6.31-5.07s0.47-0.83,1.18-0.83c0.65,0,1.24,0.53,1.24,1.18c0,0.53-0.53,1.42-0.53,1.42
			s-4.31,7.26-10.15,7.26c-4.48,0-7.49-2.66-7.49-5.96c0-4.84,3.01-9.09,3.01-12.63c0-0.53-0.53-0.94-1.18-0.94
			c-3.54,0-9.09,7.02-9.09,18.35c0,1-0.47,1.18-1.3,1.18c-3.13,0-5.55-1.36-5.55-3.25c0-6.55,3.42-15.34,4.78-18.71
			c0.29-0.71,0.88-1.12,1.59-1.12c0.89,0,2.3,0.35,4.13,3.19c0,0,4.25-3.78,9.26-3.78c2.6,0,5.02,2.77,5.02,5.07
			c0,3.54-3.13,8.14-3.13,12.39C575.1,582.87,575.81,583.75,576.99,583.75z"/>
		<path d="M581.94,579.44c0-3.42,5.67-4.72,5.67-4.72s1.24-1.95,3.95-6.14c2.77-4.13,4.66-5.55,6.14-5.55
			c1.24,0,2.89,1.59,2.89,2.18c0,0.83-1.42,2.3-1.42,3.89c0,4.66,2.3,6.61,2.3,10.21c0,5.08-3.19,8.79-8.85,8.79
			C586.78,588.12,581.94,582.92,581.94,579.44z M588.31,578.79c0,3.42,0.77,6.73,2.89,6.73c1.83,0,3.3-2.3,3.3-4.96
			c0-3.01-1.83-6.79-1.83-9.21C592.68,571.36,588.31,578.03,588.31,578.79z"/>
	</g>
</g>
</svg>
